<svg width="31" height="30" viewBox="0 0 31 30" fill="none" xmlns="http://www.w3.org/2000/svg">
<path d="M21.1164 29.9961C21.1164 29.9191 21.1164 29.8574 21.1164 29.7958C21.1164 26.0655 21.1164 22.3507 21.1164 18.6204C21.1164 18.4046 21.1164 18.4046 21.3322 18.4046C22.4883 18.4046 23.6443 18.4046 24.8158 18.4046C25.0316 18.4046 25.0162 18.4046 25.047 18.2042C25.1395 17.4644 25.2474 16.7091 25.3399 15.9692C25.417 15.3218 25.5094 14.6744 25.5865 14.0116C25.5865 13.9653 25.5865 13.9191 25.5865 13.842C24.1067 13.842 22.627 13.842 21.1318 13.842C21.1318 13.7803 21.1164 13.7341 21.1164 13.6879C21.1164 12.7013 21.1164 11.6994 21.1164 10.7129C21.1164 10.4663 21.1626 10.2197 21.2089 9.97302C21.3784 9.31021 21.8409 8.95568 22.4728 8.84778C22.7811 8.78613 23.1048 8.77071 23.4285 8.77071C24.1376 8.7553 24.8466 8.77071 25.5557 8.77071C25.7098 8.77071 25.7561 8.73988 25.7561 8.57033C25.7561 7.33719 25.7561 6.10405 25.7561 4.88632C25.7561 4.68593 25.7561 4.68593 25.5557 4.67052C24.3534 4.54721 23.1357 4.48555 21.9179 4.53179C20.5769 4.56262 19.3437 4.93256 18.2956 5.81118C17.4015 6.56647 16.8621 7.55299 16.6 8.67823C16.4459 9.31021 16.3996 9.9422 16.3996 10.5896C16.3996 11.6069 16.3996 12.6089 16.3996 13.6262C16.3996 13.6879 16.3996 13.7495 16.3996 13.842C16.3226 13.842 16.2763 13.842 16.2147 13.842C15.0278 13.842 13.8563 13.842 12.6694 13.842C12.5152 13.842 12.4844 13.8882 12.4844 14.027C12.4844 15.4297 12.4844 16.817 12.4844 18.2197C12.4844 18.3892 12.5461 18.4046 12.6848 18.4046C13.8563 18.4046 15.0278 18.4046 16.1992 18.4046C16.3996 18.4046 16.3996 18.4046 16.3996 18.605C16.3996 22.3353 16.3996 26.0809 16.3996 29.8112C16.3996 29.8728 16.3996 29.9191 16.3996 29.9961C16.338 29.9961 16.2763 29.9961 16.2301 29.9961C11.5287 29.9961 6.82737 29.9961 2.12602 29.9961C1.24741 29.9961 0.584596 29.4566 0.430454 28.5934C0.415039 28.501 0.415039 28.4085 0.415039 28.3006C0.415039 19.422 0.415039 10.5588 0.415039 1.68015C0.415039 0.709056 1.1241 0 2.09519 0C10.9738 0 19.8524 0 28.731 0C29.6867 0 30.3804 0.693642 30.4112 1.64933C30.4112 1.68015 30.4112 1.71098 30.4112 1.74181C30.4112 10.5742 30.4112 19.4066 30.4112 28.2389C30.4112 28.9634 30.1183 29.5183 29.4555 29.8266C29.2397 29.9345 28.9777 29.9807 28.731 29.9807C26.2339 29.9961 23.7522 29.9807 21.2551 29.9807C21.2089 30.0116 21.178 29.9961 21.1164 29.9961Z" fill="#D4D4D4"/>
</svg>
