<svg width="30" height="30" viewBox="0 0 30 30" fill="none" xmlns="http://www.w3.org/2000/svg">
<path d="M29.9832 15.0203C29.9832 17.2272 30.0221 19.4353 29.9689 21.6396C29.9339 23.0877 29.563 24.4796 28.8731 25.7629C27.828 27.7055 26.2006 28.9116 24.1154 29.5225C23.0365 29.8391 21.9317 29.9882 20.8126 29.9909C16.9069 30 13.0024 30.0066 9.09662 29.9882C7.66502 29.9817 6.26065 29.7475 4.9315 29.1863C2.57662 28.1948 1.10094 26.4144 0.412372 23.9563C0.133573 22.9634 -0.00128747 21.9483 9.26156e-06 20.9122C0.00649294 16.9564 0.00389947 13.0005 0.001306 9.04463C9.26165e-06 7.75871 0.204894 6.50811 0.650971 5.30591C1.57943 2.8021 3.36115 1.22708 5.8846 0.477502C6.97775 0.153079 8.09943 0.00918128 9.23537 0.00787312C13.1256 2.41715e-05 17.0145 -0.00651662 20.9034 0.0117976C22.2352 0.0183384 23.5462 0.222411 24.7988 0.703813C27.2924 1.66139 28.8641 3.46926 29.5876 6.04241C29.8664 7.0353 30.0039 8.05174 30 9.08649C29.9935 11.0644 29.9974 13.0424 29.9974 15.0203C29.9935 15.0203 29.9883 15.0203 29.9832 15.0203ZM14.9488 2.74585C13.1347 2.77463 11.2401 2.81518 9.34429 2.83219C8.62979 2.83873 7.92437 2.89629 7.22413 3.03626C5.47353 3.38292 4.1755 4.33264 3.40265 5.97046C2.97991 6.86655 2.75817 7.81758 2.75557 8.80655C2.7452 12.9246 2.74909 17.044 2.75298 21.1621C2.75428 21.9352 2.89562 22.6913 3.15367 23.4148C3.69311 24.9309 4.64233 26.0782 6.17377 26.659C6.96608 26.9599 7.7934 27.1234 8.63627 27.1495C10.1094 27.1953 11.5838 27.228 13.0569 27.2254C15.7618 27.2202 18.4668 27.1875 21.1718 27.1574C21.9849 27.1482 22.7824 27.0096 23.5539 26.7571C24.415 26.4758 25.1697 26.0219 25.7662 25.3155C26.8036 24.0898 27.2431 22.6482 27.2483 21.0692C27.2639 17.0322 27.2535 12.9953 27.2535 8.95829C27.2535 8.15116 27.1251 7.36496 26.858 6.60753C26.2952 5.01681 25.2942 3.84339 23.6706 3.2835C22.9004 3.01795 22.1055 2.8662 21.295 2.84788C19.2073 2.80079 17.1182 2.77855 14.9488 2.74585Z" fill="#D9D9D9"/>
<path d="M15.0001 22.9596C10.6469 23.0002 7.09515 19.3386 7.10163 14.9838C7.10812 10.6263 10.7001 6.987 15.0792 7.03017C19.3623 7.07203 22.9439 10.6577 22.9024 15.091C22.8635 19.4106 19.2923 23.0172 15.0001 22.9596ZM20.1299 14.9877C20.0405 12.0797 17.8918 9.85317 15.0143 9.84532C12.1408 9.83747 9.88184 12.077 9.89221 15.0125C9.90258 17.9965 12.2095 20.1824 15.039 20.1549C17.9838 20.1248 20.0599 17.8264 20.1299 14.9877Z" fill="#D9D9D9"/>
<path d="M22.9452 8.6378C22.0504 8.63388 21.4124 7.9641 21.3904 7.05886C21.3696 6.20986 22.1204 5.46944 22.9594 5.4786C23.8101 5.48776 24.5337 6.21771 24.5311 7.07325C24.5285 7.93794 23.8153 8.64173 22.9452 8.6378Z" fill="#D9D9D9"/>
</svg>
