<svg width="31" height="31" viewBox="0 0 31 31" fill="none" xmlns="http://www.w3.org/2000/svg">
<path d="M30.1778 15.0889C30.1778 19.3656 30.1778 23.6273 30.1778 27.904C30.1778 28.4762 30.0273 28.9882 29.6357 29.4099C29.199 29.9068 28.6418 30.1628 27.9943 30.1628C19.3807 30.1628 10.7821 30.1779 2.16847 30.1628C0.978822 30.1628 0.105412 29.2442 0.0150588 28.2353C0.0150588 28.1299 0 28.0094 0 27.904C0 19.3506 0 10.7972 0 2.25882C0 1.11435 0.662587 0.301176 1.77694 0.0602352C1.91247 0.0150588 2.06306 0 2.19859 0C10.7972 0 19.3807 0 27.9793 0C29.0334 0 29.9068 0.707764 30.1327 1.73176C30.1778 1.91247 30.1778 2.10823 30.1778 2.28894C30.1778 6.55058 30.1778 10.8122 30.1778 15.0889ZM16.0979 13.2668C16.0828 13.2668 16.0677 13.2668 16.0677 13.2668C16.0677 13.2216 16.0527 13.1614 16.0527 13.1162C16.0527 12.5741 16.0527 12.032 16.0527 11.5049C16.0527 11.2941 16.0527 11.2941 15.8419 11.2941C14.5317 11.2941 13.2367 11.2941 11.9266 11.2941C11.7308 11.2941 11.7308 11.2941 11.7308 11.4899C11.7308 16.1732 11.7308 20.8564 11.7308 25.5397C11.7308 25.7355 11.7308 25.7355 11.9266 25.7355C13.2819 25.7355 14.6522 25.7355 16.0075 25.7355C16.2485 25.7355 16.2334 25.7656 16.2334 25.5096C16.2485 22.9797 16.2485 20.4649 16.2635 17.935C16.2635 17.4381 16.3539 16.9412 16.5346 16.4593C16.7906 15.7515 17.2423 15.2546 17.9802 15.0437C18.4019 14.9233 18.8386 14.8781 19.2753 14.9383C20.0433 15.0287 20.6004 15.4052 20.9016 16.128C21.1576 16.7303 21.2179 17.3779 21.2179 18.0405C21.2179 20.5402 21.2179 23.055 21.2179 25.5548C21.2179 25.7506 21.2179 25.7506 21.4136 25.7506C22.799 25.7506 24.1844 25.7506 25.5699 25.7506C25.6301 25.7506 25.6903 25.7506 25.7506 25.7506C25.7506 25.6602 25.7506 25.6 25.7506 25.5397C25.7506 23.7176 25.7506 21.8955 25.7506 20.0884C25.7506 18.9741 25.7506 17.8447 25.7204 16.7303C25.7054 16.2334 25.6451 15.7515 25.5699 15.2696C25.4494 14.5016 25.2386 13.7788 24.832 13.1012C24.335 12.2579 23.6273 11.6856 22.7087 11.3543C21.8955 11.0682 21.0522 10.9779 20.1939 10.9929C19.3506 11.008 18.5524 11.2188 17.8146 11.6254C17.1972 11.9718 16.6852 12.4235 16.2936 13.0108C16.2183 13.056 16.1581 13.1614 16.0979 13.2668ZM4.45741 25.7204C4.5327 25.7204 4.59294 25.7204 4.65317 25.7204C6.02352 25.7204 7.39387 25.7204 8.76423 25.7204C8.95999 25.7204 8.95999 25.7204 8.95999 25.5096C8.95999 20.8414 8.95999 16.1581 8.95999 11.4899C8.95999 11.279 8.95999 11.279 8.74917 11.279C7.39387 11.279 6.02352 11.279 4.66823 11.279C4.45741 11.279 4.45741 11.279 4.45741 11.4748C4.45741 16.1581 4.45741 20.8414 4.45741 25.5247C4.45741 25.5849 4.45741 25.6451 4.45741 25.7204ZM6.71623 4.12611C5.28564 4.096 4.096 5.31576 4.096 6.73129C4.096 8.17693 5.22541 9.36658 6.70117 9.36658C8.20705 9.36658 9.33646 8.22211 9.33646 6.74635C9.33646 5.27058 8.14681 4.12611 6.71623 4.12611Z" fill="#D4D4D4"/>
</svg>
