<svg width="122" height="65" viewBox="0 0 122 65" fill="none" xmlns="http://www.w3.org/2000/svg">
<path d="M48.3451 28.8615C47.5037 28.8615 46.7208 29.1758 45.9964 29.8044C45.3887 30.4599 45.081 31.2036 45.081 32.0315C45.081 32.9438 45.4004 33.7143 46.0392 34.3429C48.3295 36.3707 50.6353 38.3333 52.9568 40.315C55.2782 42.3006 57.5841 44.3054 59.8743 46.3293C60.5988 46.9848 61.1363 47.7361 61.483 48.5755C61.8296 49.4188 62.0049 50.266 62.0049 51.1246C62.0049 52.0676 61.8219 52.9377 61.4596 53.735C61.0974 54.5361 60.6105 55.2338 60.0029 55.8318C59.3953 56.4297 58.6825 56.9012 57.8723 57.2462C57.0582 57.5874 56.2052 57.7598 55.3055 57.7598H43.0829C42.561 57.7598 42.1481 57.5835 41.8443 57.2232C41.5405 56.8667 41.3885 56.4872 41.3885 56.0886C41.3885 55.6018 41.5405 55.1878 41.8443 54.8466C42.1481 54.5055 42.561 54.333 43.0829 54.333H55.3055C56.2325 54.333 56.9959 54.0187 57.588 53.39C58.1839 52.7614 58.4799 52.0062 58.4799 51.1208C58.4799 50.6915 58.3942 50.2851 58.219 49.9018C58.0437 49.5147 57.8139 49.1659 57.5217 48.8515C55.2315 46.8813 52.9256 44.8842 50.6042 42.8564C48.2827 40.8287 45.9769 38.8163 43.6866 36.8192C43.0206 36.1905 42.5064 35.4622 42.1442 34.6343C41.7819 33.8063 41.5989 32.9362 41.5989 32.0239C41.5989 31.1116 41.7664 30.2683 42.0974 29.4978C42.4285 28.7273 42.9037 28.0144 43.5113 27.3589C44.9019 26.0748 46.5144 25.4308 48.3412 25.4308H60.5209C61.0156 25.4308 61.4362 25.6033 61.7829 25.9444C62.1296 26.2856 62.2776 26.7149 62.2191 27.2285C62.1607 28.3133 61.5959 28.8538 60.5209 28.8538H48.3451V28.8615Z" fill="white"/>
<path d="M79.961 36.9035C80.366 37.1335 80.6348 37.4593 80.7672 37.8886C80.8958 38.3179 80.8919 38.7434 80.7439 39.1727L68.8679 64.0462C68.6342 64.4449 68.2954 64.7324 67.8474 64.901C67.3956 65.0735 67.0061 65.0045 66.566 64.8167C66.0713 64.5867 65.8103 64.2609 65.6974 63.8316C65.5805 63.4023 65.6234 62.9039 65.8259 62.3328L69.8728 53.942C68.6264 51.4581 67.3839 49.0048 66.1531 46.5784C64.9184 44.152 63.6953 41.6988 62.4762 39.2149C62.2425 38.7281 62.2503 38.2144 62.4217 37.8119C62.5969 37.4133 62.7566 37.214 63.1617 36.9303C63.5668 36.7003 64.0693 36.6121 64.4743 36.7961C64.8794 36.984 65.1988 37.2868 65.4325 37.7161L71.6957 50.1739C72.7123 48.1194 73.7055 46.0494 74.6754 43.968C75.6453 41.8866 76.6385 39.8014 77.6551 37.7161C77.8888 37.2868 78.2121 36.9878 78.6328 36.8153C79.0534 36.6466 79.4974 36.6773 79.961 36.9035Z" fill="white"/>
<path d="M119.519 39.1804C120.302 39.9509 120.909 40.844 121.346 41.856C121.782 42.8679 122 43.9336 122 45.0452V49.4112C122 50.5803 121.774 51.6727 121.326 52.6847C120.874 53.6967 120.267 54.5821 119.499 55.3373C118.732 56.0924 117.825 56.6866 116.781 57.112C115.737 57.5414 114.635 57.756 113.474 57.756C112.286 57.756 111.176 57.5414 110.147 57.112C109.119 56.6827 108.219 56.0924 107.452 55.3373C106.685 54.5821 106.081 53.6967 105.649 52.6847C105.212 51.6727 104.994 50.5803 104.994 49.4112V45.0452C104.994 43.9336 105.212 42.8679 105.649 41.856C106.085 40.844 106.693 39.9509 107.475 39.1804C108.258 38.3524 109.135 37.7315 110.194 37.3175C111.254 36.9035 112.348 36.6965 113.478 36.6965C114.638 36.6965 115.733 36.9035 116.761 37.3175C117.786 37.7315 118.709 38.3524 119.519 39.1804ZM113.474 54.4633C114.171 54.4633 114.829 54.3291 115.452 54.057C116.076 53.7848 116.629 53.4207 117.104 52.9645C117.583 52.5084 117.961 51.9717 118.234 51.3584C118.51 50.7451 118.646 50.0973 118.646 49.4112V45.0452C118.646 44.3897 118.518 43.7534 118.257 43.1401C117.996 42.5268 117.618 41.9786 117.127 41.4918C116.142 40.522 114.923 40.0352 113.474 40.0352C112.138 40.0352 110.934 40.522 109.863 41.4918C108.878 42.5191 108.383 43.7036 108.383 45.0452V49.4112C108.383 50.0973 108.519 50.7451 108.796 51.3584C109.072 51.9717 109.435 52.5084 109.883 52.9645C110.331 53.4207 110.868 53.7848 111.491 54.057C112.118 54.3291 112.777 54.4633 113.474 54.4633Z" fill="white"/>
<path d="M17.0914 18.1631C17.0914 18.6384 16.7486 19.2249 16.3279 19.4587L0.763425 28.2635C0.342762 28.5012 0 28.3057 0 27.8265V10.2016C0 9.72625 0.342762 9.1436 0.763425 8.90595L16.3279 0.101126C16.7486 -0.136531 17.0914 0.0589611 17.0914 0.538109V18.1631Z" fill="white"/>
<path d="M17.1186 21.6743C16.8577 21.6743 16.6084 21.7318 16.4058 21.8467L1.05553 30.6247C0.650451 30.8547 0.654346 31.2342 1.05943 31.468L16.3825 40.2192C16.5889 40.338 16.8538 40.3955 17.1147 40.3917V21.6743H17.1186Z" fill="white"/>
<path d="M17.1187 21.6743C17.3796 21.6743 17.6484 21.7318 17.8509 21.8467L33.209 30.6247C33.6141 30.8547 33.6141 31.2342 33.209 31.468L17.8704 40.2192C17.664 40.338 17.3835 40.3955 17.1225 40.3917V21.6743H17.1187Z" fill="white"/>
<path d="M100.289 41.0012C99.9152 40.1502 99.4011 39.4104 98.7506 38.7856C98.1001 38.1608 97.3445 37.6625 96.4759 37.2945C95.6112 36.9265 94.6881 36.7425 93.7066 36.7425H92.3667H91.0229C90.0413 36.7425 89.1182 36.9265 88.2535 37.2945C87.3888 37.6625 86.6293 38.1608 85.9827 38.7856C85.3323 39.4104 84.822 40.1502 84.4442 41.0012C84.0703 41.8521 83.8833 42.7606 83.8833 43.7266V50.4078V51.0556V56.0387C83.8833 56.5485 84.0547 56.9549 84.4013 57.2539C84.748 57.5528 85.1219 57.7023 85.527 57.7023C86.045 57.7023 86.4735 57.5528 86.8046 57.2539C87.1356 56.9549 87.3031 56.5524 87.3031 56.0387V51.0556V50.4078V43.7266C87.3031 43.2167 87.4044 42.7414 87.6069 42.3006C87.8095 41.8598 88.0782 41.4765 88.4093 41.1507C88.7404 40.8248 89.1299 40.5603 89.5778 40.361C90.0258 40.1617 90.5087 40.062 91.0268 40.062H92.3706H93.7104C94.2285 40.062 94.7115 40.1617 95.1594 40.361C95.6073 40.5603 95.9968 40.8248 96.3279 41.1507C96.659 41.4765 96.9277 41.8598 97.1303 42.3006C97.3328 42.7414 97.4341 43.2167 97.4341 43.7266V50.4078V51.0556V56.0387C97.4341 56.5485 97.6016 56.9549 97.9327 57.2539C98.2637 57.5528 98.6883 57.7023 99.2102 57.7023C99.6153 57.7023 99.9892 57.5528 100.336 57.2539C100.683 56.9549 100.854 56.5524 100.854 56.0387V51.0556V50.4078V43.7266C100.85 42.7606 100.663 41.8521 100.289 41.0012Z" fill="white"/>
</svg>
